HIERARCHY
ROOT Hips
{
	OFFSET 0.000000 0.000000 0.000000
	CHANNELS 6 Xposition Yposition Zposition Yrotation Xrotation Zrotation
	JOINT Chest
	{
		OFFSET 0.000000 -0.009281 11.569106
		CHANNELS 3 Yrotation Xrotation Zrotation
		JOINT Chest2
		{
			OFFSET -0.000000 0.016865 9.269641
			CHANNELS 3 Yrotation Xrotation Zrotation
			JOINT Chest3
			{
				OFFSET -0.000000 0.000001 8.374491
				CHANNELS 3 Yrotation Xrotation Zrotation
				JOINT Chest4
				{
					OFFSET -0.000000 0.000001 8.374493
					CHANNELS 3 Yrotation Xrotation Zrotation
					JOINT Neck
					{
						OFFSET -0.000000 0.000002 12.152554
						CHANNELS 3 Yrotation Xrotation Zrotation
						JOINT Head
						{
							OFFSET -0.000000 0.040101 7.802319
							CHANNELS 3 Yrotation Xrotation Zrotation
							End Site
							{
								OFFSET -0.000000 0.020947 14.853096
							}
						}
					}
					JOINT RightCollar
					{
						OFFSET 2.894404 0.000001 6.791374
						CHANNELS 3 Yrotation Xrotation Zrotation
						JOINT RightShoulder
						{
							OFFSET 13.574684 0.000001 0.000000
							CHANNELS 3 Yrotation Xrotation Zrotation
							JOINT RightElbow
							{
								OFFSET 23.923903 0.000002 0.000000
								CHANNELS 3 Yrotation Xrotation Zrotation
								JOINT RightWrist
								{
									OFFSET 19.846718 0.012767 0.000000
									CHANNELS 3 Yrotation Xrotation Zrotation
									End Site
									{
										OFFSET 14.973145 0.000001 0.000000
									}
								}
							}
						}
					}
					JOINT LeftCollar
					{
						OFFSET -2.894404 0.000001 6.791374
						CHANNELS 3 Yrotation Xrotation Zrotation
						JOINT LeftShoulder
						{
							OFFSET -13.574684 -0.000001 0.000000
							CHANNELS 3 Yrotation Xrotation Zrotation
							JOINT LeftElbow
							{
								OFFSET -23.923903 -0.000002 0.000000
								CHANNELS 3 Yrotation Xrotation Zrotation
								JOINT LeftWrist
								{
									OFFSET -19.846718 0.012763 0.000000
									CHANNELS 3 Yrotation Xrotation Zrotation
									End Site
									{
										OFFSET -14.973145 -0.000001 0.000000
									}
								}
							}
						}
					}
				}
			}
		}
	}
	JOINT RightHip
	{
		OFFSET 9.469263 0.004643 0.045487
		CHANNELS 3 Yrotation Xrotation Zrotation
		JOINT RightKnee
		{
			OFFSET 0.000000 0.002661 -40.478676
			CHANNELS 3 Yrotation Xrotation Zrotation
			JOINT RightAnkle
			{
				OFFSET 0.000000 0.049106 -35.224068
				CHANNELS 3 Yrotation Xrotation Zrotation
				JOINT RightToe
				{
					OFFSET -0.000001 12.539529 -6.151390
					CHANNELS 3 Yrotation Xrotation Zrotation
					End Site
					{
						OFFSET -0.000001 5.044994 -1.291870
					}
				}
			}
		}
	}
	JOINT LeftHip
	{
		OFFSET -9.469263 0.004641 0.045487
		CHANNELS 3 Yrotation Xrotation Zrotation
		JOINT LeftKnee
		{
			OFFSET 0.000000 0.002661 -40.478676
			CHANNELS 3 Yrotation Xrotation Zrotation
			JOINT LeftAnkle
			{
				OFFSET 0.000000 0.049106 -35.224068
				CHANNELS 3 Yrotation Xrotation Zrotation
				JOINT LeftToe
				{
					OFFSET -0.000001 12.539529 -6.151390
					CHANNELS 3 Yrotation Xrotation Zrotation
					End Site
					{
						OFFSET -0.000001 5.044994 -1.291870
					}
				}
			}
		}
	}
}
MOTION
Frames: 11
Frame Time: 0.016667
-2.286489 41.892242 82.112900 -4.238012 0.790938 -110.461248 -0.564095 -6.147174 1.440154 -0.129208 -2.634349 0.614509 -0.129208 -2.634348 0.614508 -0.094239 -1.975895 0.460242 2.142101 -22.336204 -1.865794 3.354129 -5.280104 -2.779044 9.478382 5.635103 0.241723 39.897150 -9.164661 -11.627994 -31.895723 -66.746343 92.909813 -49.452475 42.866001 44.796223 -9.053224 5.381749 -3.305013 -40.880379 0.085770 12.194062 -23.974294 -70.192830 -37.743519 28.936913 15.739614 -70.031364 -7.816114 13.741674 -5.361468 14.798430 -40.833808 -21.346880 4.376354 4.109862 8.313285 -7.821769 17.768110 -0.964633 -9.918240 -4.956294 -2.581579 -3.885514 -3.438846 16.075018 8.694306 4.318490 -1.015432 -0.059147 -0.380417 -0.250267 
-2.275549 41.827568 82.020638 -4.402920 1.185392 -110.015851 -0.748848 -6.217179 1.301591 -0.144079 -2.665339 0.590148 -0.144079 -2.665339 0.590147 -0.105466 -1.999147 0.441901 2.281294 -22.518258 -1.923403 3.591402 -5.616836 -2.847799 9.493729 5.658358 0.184771 39.895859 -9.126268 -11.638818 -31.856163 -66.638385 92.819156 -49.458926 42.869532 44.825900 -9.006407 5.274205 -3.332409 -40.898951 0.283211 12.141450 -24.031787 -70.214597 -37.743239 28.981346 15.639514 -69.968273 -8.455043 16.148688 -6.025432 14.525823 -44.791657 -20.392117 4.729801 1.047236 7.871224 -8.640470 21.989955 -1.385238 -10.260520 -4.850741 -2.863510 -4.041928 -3.773522 16.208493 8.715178 4.565129 -0.872343 -0.077286 -0.431051 -0.534625 
-2.240730 41.814388 81.955879 -4.440558 1.577335 -109.519522 -0.928604 -6.203460 1.163169 -0.146819 -2.685078 0.561150 -0.146819 -2.685079 0.561148 -0.107627 -2.013946 0.420140 2.437905 -22.646080 -2.009539 3.851771 -5.852412 -2.962826 9.517137 5.700502 0.128293 39.934088 -8.991497 -11.743170 -31.958004 -66.495122 92.838814 -49.406511 42.878104 44.904484 -8.994076 5.194663 -3.372734 -40.905781 0.302224 12.093628 -24.073521 -70.179804 -37.734732 29.044082 15.664269 -69.943343 -8.692950 18.331615 -6.586421 13.724451 -48.094067 -18.947165 4.638387 -1.196884 7.574610 -9.042396 24.745029 -1.769860 -10.617149 -4.643466 -3.142165 -4.121711 -4.100379 16.377892 8.643881 4.713758 -0.881500 -0.048665 -0.401924 -0.737155 
-2.196291 42.001194 81.920074 -4.374250 1.828685 -109.070717 -1.002188 -6.138541 1.094591 -0.124216 -2.687854 0.528516 -0.124217 -2.687853 0.528516 -0.090820 -2.015998 0.395768 2.587703 -22.766441 -2.111776 4.095471 -6.073816 -3.108949 9.543934 5.800900 0.110902 39.960937 -8.848128 -11.953100 -32.276571 -66.319853 93.074202 -49.306961 42.907812 45.025758 -9.044957 5.169810 -3.377935 -40.949238 0.154626 12.107455 -23.963256 -70.078294 -37.796792 29.066556 15.750140 -69.963219 -8.197740 19.956281 -6.829500 12.116116 -50.137591 -16.850227 4.379503 -2.300470 7.722710 -9.373846 25.426665 -2.073835 -10.931081 -4.350284 -3.187049 -4.081222 -4.432361 16.576482 8.419968 4.767382 -1.339340 0.102182 -0.314774 -0.693174 
-2.141536 42.297417 81.922089 -4.243661 1.841054 -108.672517 -0.881097 -6.084504 1.069579 -0.078874 -2.681750 0.495230 -0.078874 -2.681750 0.495231 -0.056970 -2.011377 0.371007 2.719015 -22.891382 -2.221303 4.304050 -6.303563 -3.273591 9.575412 5.977922 0.125900 39.908788 -8.750128 -12.178087 -32.761197 -66.182293 93.526163 -49.217390 42.965909 45.144248 -9.130700 5.152605 -3.353627 -41.060850 0.062625 12.175060 -23.751575 -70.003381 -37.848680 29.085230 15.845774 -70.037750 -7.108468 21.203720 -6.341688 10.243919 -50.809511 -14.797649 4.184935 -3.181108 7.956761 -9.632801 25.034892 -2.260036 -11.086916 -4.074166 -3.025451 -3.986749 -4.736936 16.662801 8.155505 4.712361 -2.012303 0.313884 -0.171654 -0.495324 
-2.057639 42.615856 81.963753 -4.115750 1.739748 -108.286420 -0.679932 -6.063111 1.031609 -0.024482 -2.677005 0.458916 -0.024483 -2.677005 0.458914 -0.016347 -2.007774 0.344014 2.832741 -23.008658 -2.328884 4.481535 -6.519057 -3.439511 9.608918 6.236049 0.180203 39.765296 -8.765388 -12.371085 -33.241212 -66.084102 94.044601 -49.162264 43.027234 45.225821 -9.180847 5.089961 -3.279604 -41.258383 0.143289 12.231990 -23.531860 -70.004753 -37.840956 29.089878 15.913062 -70.098559 -5.752467 22.325652 -4.869478 8.638629 -50.546794 -12.885277 4.135096 -3.710743 7.559752 -9.514354 23.622947 -2.234147 -11.145428 -3.888723 -2.795900 -3.880890 -4.961969 16.602761 7.930956 4.557259 -2.603394 0.489067 -0.004870 -0.324780 
-1.955087 42.890396 82.032646 -3.980967 1.545959 -107.896819 -0.421273 -6.086584 1.001438 0.025281 -2.686156 0.430244 0.025281 -2.686155 0.430243 0.020849 -2.014602 0.322732 2.965742 -23.084422 -2.450013 4.689751 -6.657045 -3.623933 9.628308 6.528045 0.198162 39.602786 -8.886928 -12.505115 -33.572794 -65.962258 94.469897 -49.113428 43.024103 45.277543 -9.167558 5.058074 -3.251461 -41.489011 0.317441 12.314893 -23.425691 -70.011256 -37.746996 29.115082 15.876893 -70.121113 -4.302404 23.262327 -2.597436 7.613230 -49.310708 -11.416205 3.922441 -4.125754 6.595750 -8.844368 21.446019 -1.990064 -11.103297 -3.776794 -2.557072 -3.754683 -5.122055 16.469895 7.704622 4.305187 -3.141737 0.638011 0.196420 -0.173821 
-1.838124 43.113380 82.116737 -3.866310 1.363836 -107.476735 -0.204433 -6.135236 0.962105 0.067981 -2.706506 0.406969 0.067981 -2.706508 0.406969 0.052780 -2.029836 0.305468 3.127406 -23.124058 -2.587701 4.944798 -6.727403 -3.829846 9.621933 6.803262 0.169052 39.464413 -9.103020 -12.597756 -33.755594 -65.783177 94.773273 -49.045539 42.944121 45.317718 -9.146242 5.054480 -3.279901 -41.677159 0.477296 12.426017 -23.395741 -69.980547 -37.639912 29.184729 15.763079 -70.098307 -2.990608 23.935522 -0.035389 6.777442 -47.184624 -10.706605 3.539238 -4.543763 6.047912 -7.764045 18.672602 -1.613626 -11.025909 -3.746120 -2.368808 -3.659429 -5.185702 16.339056 7.503624 4.026398 -3.645213 0.744983 0.360361 -0.066806 
-1.705041 43.266880 82.205086 -3.766978 1.182816 -107.021114 -0.008816 -6.202650 0.914714 0.105759 -2.730756 0.387137 0.105759 -2.730756 0.387133 0.081036 -2.048002 0.290767 3.312426 -23.142962 -2.742914 5.236988 -6.758624 -4.060685 9.572171 6.870951 0.138876 39.341961 -9.180126 -12.557949 -33.925778 -65.603202 95.071479 -48.976056 42.827127 45.340992 -9.107332 5.025206 -3.303057 -41.836213 0.563484 12.470047 -23.336695 -69.940434 -37.607315 29.294767 15.666215 -70.017519 -1.795375 24.300360 2.519761 5.702792 -44.327573 -10.579609 3.141201 -4.981335 6.246564 -6.454705 15.487128 -1.199810 -10.892156 -3.802827 -2.287158 -3.617330 -5.149786 16.238003 7.335084 3.711285 -4.076185 0.815461 0.512793 0.012895 
-1.548982 43.378277 82.291801 -3.693984 1.108540 -106.537844 0.068881 -6.272799 0.869691 0.139863 -2.754836 0.370021 0.139863 -2.754837 0.370020 0.106547 -2.066044 0.278091 3.517321 -23.147158 -2.917164 5.559693 -6.761813 -4.320169 9.481578 6.771084 0.106414 39.226285 -9.104015 -12.391205 -34.113691 -65.458081 95.389903 -48.906579 42.707298 45.365290 -9.084390 5.024728 -3.340501 -41.945814 0.539584 12.488377 -23.325277 -69.880840 -37.559381 29.413363 15.606398 -69.927709 -0.862320 24.416839 4.995793 4.490984 -40.905976 -10.595494 2.901444 -5.478516 6.713537 -5.145933 11.969540 -0.898337 -10.818466 -3.937769 -2.322389 -3.606841 -4.991201 16.165714 7.183960 3.391957 -4.490485 0.860906 0.613630 0.075112 
-1.378838 43.422211 82.372711 -3.586955 0.986724 -106.031146 0.198586 -6.323145 0.830212 0.170037 -2.774409 0.352653 0.170037 -2.774409 0.352653 0.129105 -2.080709 0.265211 3.737246 -23.144127 -3.110077 5.904383 -6.750814 -4.609048 9.394625 6.717877 0.062830 39.117938 -9.057817 -12.236237 -34.333957 -65.346899 95.722069 -48.826410 42.615176 45.404273 -9.081037 5.019570 -3.403971 -42.020058 0.464276 12.499836 -23.408983 -69.806261 -37.431127 29.522960 15.584579 -69.862986 0.096757 24.212730 7.428418 3.232336 -36.780002 -10.256548 2.695231 -6.120041 6.891341 -3.870991 7.971124 -0.590141 -10.653372 -4.128878 -2.409894 -3.599462 -4.734279 16.063145 7.024014 3.105506 -4.813758 0.888472 0.645510 0.107566 
